<svg width="27" height="29" viewBox="0 0 27 29" fill="none" xmlns="http://www.w3.org/2000/svg">
<g clip-path="url(#clip0_306_953)">
<path d="M11.25 18.125L11.25 22.9584C11.25 23.9198 11.6056 24.8418 12.2385 25.5216C12.8715 26.2015 13.7299 26.5834 14.625 26.5834L19.125 15.7084L19.125 2.41671L6.435 2.41671C5.89238 2.41012 5.36583 2.61439 4.95236 2.99187C4.53889 3.36935 4.26636 3.89461 4.185 4.47088L2.6325 15.3459C2.58356 15.6922 2.6053 16.0459 2.69624 16.3823C2.78718 16.7188 2.94514 17.0299 3.15916 17.2943C3.37318 17.5587 3.63816 17.7699 3.93573 17.9133C4.2333 18.0568 4.55635 18.129 4.8825 18.125H11.25ZM19.125 2.41671H22.5C23.0967 2.41671 23.669 2.67132 24.091 3.12453C24.5129 3.57775 24.75 4.19243 24.75 4.83337L24.75 13.2917C24.75 13.9326 24.5129 14.5473 24.091 15.0005C23.669 15.4538 23.0967 15.7084 22.5 15.7084H19.125" fill="#CE1818"/>
<path d="M19.125 15.7084L14.625 26.5834C13.7299 26.5834 12.8715 26.2015 12.2385 25.5216C11.6056 24.8418 11.25 23.9198 11.25 22.9584L11.25 18.125H4.8825C4.55635 18.129 4.2333 18.0568 3.93573 17.9133C3.63816 17.7699 3.37318 17.5587 3.15916 17.2943C2.94514 17.0299 2.78718 16.7188 2.69624 16.3823C2.6053 16.0459 2.58356 15.6922 2.6325 15.3459L4.185 4.47088C4.26636 3.89461 4.53889 3.36935 4.95236 2.99187C5.36583 2.61439 5.89238 2.41012 6.435 2.41671L19.125 2.41671M19.125 15.7084L19.125 2.41671M19.125 15.7084H22.5C23.0967 15.7084 23.669 15.4538 24.091 15.0005C24.5129 14.5473 24.75 13.9326 24.75 13.2917L24.75 4.83337C24.75 4.19243 24.5129 3.57775 24.091 3.12453C23.669 2.67132 23.0967 2.41671 22.5 2.41671H19.125" stroke="#1E1E1E" stroke-width="4" stroke-linecap="round" stroke-linejoin="round"/>
</g>
<defs>
<clipPath id="clip0_306_953">
<rect width="27" height="29" fill="white" transform="matrix(-1 0 0 -1 27 29)"/>
</clipPath>
</defs>
</svg>
