<svg width="27" height="29" viewBox="0 0 27 29" fill="none" xmlns="http://www.w3.org/2000/svg">
<g clip-path="url(#clip0_81_826)">
<rect width="27" height="29" transform="matrix(-1 0 0 -1 27 29)" fill="white"/>
<path d="M11.25 18.125L11.25 22.9583C11.25 23.9198 11.6056 24.8418 12.2385 25.5216C12.8715 26.2014 13.7299 26.5833 14.625 26.5833L19.125 15.7083L19.125 2.41668L6.435 2.41668C5.89238 2.41009 5.36583 2.61435 4.95236 2.99184C4.53889 3.36932 4.26636 3.89458 4.185 4.47085L2.6325 15.3458C2.58356 15.6922 2.6053 16.0459 2.69624 16.3823C2.78718 16.7187 2.94514 17.0299 3.15916 17.2943C3.37318 17.5586 3.63816 17.7698 3.93573 17.9133C4.2333 18.0567 4.55635 18.129 4.8825 18.125H11.25ZM19.125 2.41668H22.5C23.0967 2.41668 23.669 2.67129 24.091 3.1245C24.5129 3.57772 24.75 4.1924 24.75 4.83334L24.75 13.2917C24.75 13.9326 24.5129 14.5473 24.091 15.0005C23.669 15.4537 23.0967 15.7083 22.5 15.7083H19.125" fill="#CE1818"/>
<path d="M19.125 15.7083L14.625 26.5833C13.7299 26.5833 12.8715 26.2014 12.2385 25.5216C11.6056 24.8418 11.25 23.9198 11.25 22.9583L11.25 18.125H4.8825C4.55635 18.129 4.2333 18.0567 3.93573 17.9133C3.63816 17.7698 3.37318 17.5586 3.15916 17.2943C2.94514 17.0299 2.78718 16.7187 2.69624 16.3823C2.6053 16.0459 2.58356 15.6922 2.6325 15.3458L4.185 4.47085C4.26636 3.89458 4.53889 3.36932 4.95236 2.99184C5.36583 2.61435 5.89238 2.41009 6.435 2.41668L19.125 2.41668M19.125 15.7083L19.125 2.41668M19.125 15.7083H22.5C23.0967 15.7083 23.669 15.4537 24.091 15.0005C24.5129 14.5473 24.75 13.9326 24.75 13.2917L24.75 4.83334C24.75 4.1924 24.5129 3.57772 24.091 3.1245C23.669 2.67129 23.0967 2.41668 22.5 2.41668H19.125" stroke="#1E1E1E" stroke-width="4" stroke-linecap="round" stroke-linejoin="round"/>
</g>
<defs>
<clipPath id="clip0_81_826">
<rect width="27" height="29" fill="white" transform="matrix(-1 0 0 -1 27 29)"/>
</clipPath>
</defs>
</svg>
