<svg width="37" height="35" viewBox="0 0 37 35" fill="none" xmlns="http://www.w3.org/2000/svg">
<g clip-path="url(#clip0_4_3295)">
<path d="M15.2774 20.9636L15.0395 26.3812C14.9922 27.4589 15.4128 28.5129 16.2087 29.3113C17.0047 30.1097 18.1108 30.5872 19.2837 30.6387L25.716 18.708L26.3702 3.8094L9.74098 3.07913C9.03025 3.04052 8.33019 3.23918 7.76979 3.6385C7.20938 4.03782 6.82641 4.61091 6.69142 5.25215L4.12169 17.3525C4.0405 17.7379 4.05159 18.1356 4.1542 18.5179C4.2568 18.9003 4.44847 19.2582 4.71592 19.5668C4.98337 19.8754 5.3202 20.1275 5.70309 20.3054C6.08597 20.4833 6.50575 20.5828 6.93333 20.5972L15.2774 20.9636ZM26.3702 3.8094L30.7929 4.00362C31.5749 4.03797 32.3123 4.35629 32.8429 4.88858C33.3735 5.42086 33.6539 6.12351 33.6224 6.84193L33.206 16.3228C33.1745 17.0413 32.8336 17.7166 32.2583 18.2003C31.6831 18.6841 30.9206 18.9365 30.1386 18.9022L25.716 18.708" fill="#CE1818"/>
<path d="M25.716 18.708L19.2837 30.6387C18.1108 30.5872 17.0047 30.1097 16.2087 29.3113C15.4128 28.5129 14.9922 27.4589 15.0395 26.3812L15.2774 20.9636L6.93333 20.5972C6.50575 20.5828 6.08597 20.4833 5.70309 20.3054C5.3202 20.1275 4.98337 19.8754 4.71592 19.5668C4.44847 19.2582 4.2568 18.9003 4.1542 18.5179C4.05159 18.1356 4.0405 17.7379 4.12169 17.3525L6.69142 5.25215C6.82641 4.61091 7.20939 4.03783 7.76979 3.6385C8.33019 3.23918 9.03025 3.04052 9.74098 3.07913L26.3702 3.8094M25.716 18.708L26.3702 3.8094M25.716 18.708L30.1386 18.9022C30.9206 18.9365 31.6831 18.6841 32.2583 18.2003C32.8336 17.7166 33.1745 17.0413 33.206 16.3228L33.6224 6.84193C33.6539 6.12351 33.3735 5.42086 32.8429 4.88858C32.3123 4.35629 31.5749 4.03796 30.7929 4.00362L26.3702 3.8094" stroke="#1E1E1E" stroke-width="4" stroke-linecap="round" stroke-linejoin="round"/>
</g>
<defs>
<clipPath id="clip0_4_3295">
<rect width="35.4155" height="32.5373" fill="white" transform="translate(35.3813 34.0597) rotate(-177.485)"/>
</clipPath>
</defs>
</svg>
