<svg width="27" height="29" viewBox="0 0 27 29" fill="none" xmlns="http://www.w3.org/2000/svg">
<g clip-path="url(#clip0_306_956)">
<path d="M15.75 10.875V6.04163C15.75 5.08022 15.3944 4.15818 14.7615 3.47836C14.1286 2.79854 13.2701 2.41663 12.375 2.41663L7.875 13.2916V26.5833H20.565C21.1076 26.5899 21.6342 26.3856 22.0476 26.0081C22.4611 25.6307 22.7336 25.1054 22.815 24.5291L24.3675 13.6541C24.4164 13.3078 24.3947 12.9541 24.3038 12.6177C24.2128 12.2812 24.0549 11.9701 23.8408 11.7057C23.6268 11.4413 23.3618 11.2301 23.0643 11.0867C22.7667 10.9432 22.4436 10.871 22.1175 10.875H15.75ZM7.875 26.5833H4.5C3.90326 26.5833 3.33097 26.3287 2.90901 25.8755C2.48705 25.4223 2.25 24.8076 2.25 24.1666V15.7083C2.25 15.0674 2.48705 14.4527 2.90901 13.9995C3.33097 13.5462 3.90326 13.2916 4.5 13.2916H7.875" fill="#45CA30"/>
<path d="M7.875 13.2916L12.375 2.41663C13.2701 2.41663 14.1286 2.79854 14.7615 3.47836C15.3944 4.15818 15.75 5.08022 15.75 6.04163V10.875H22.1175C22.4436 10.871 22.7667 10.9432 23.0643 11.0867C23.3618 11.2301 23.6268 11.4413 23.8408 11.7057C24.0549 11.9701 24.2128 12.2812 24.3038 12.6177C24.3947 12.9541 24.4164 13.3078 24.3675 13.6541L22.815 24.5291C22.7336 25.1054 22.4611 25.6307 22.0476 26.0081C21.6342 26.3856 21.1076 26.5899 20.565 26.5833H7.875M7.875 13.2916V26.5833M7.875 13.2916H4.5C3.90326 13.2916 3.33097 13.5462 2.90901 13.9995C2.48705 14.4527 2.25 15.0674 2.25 15.7083V24.1666C2.25 24.8076 2.48705 25.4223 2.90901 25.8755C3.33097 26.3287 3.90326 26.5833 4.5 26.5833H7.875" stroke="#1E1E1E" stroke-width="4" stroke-linecap="round" stroke-linejoin="round"/>
</g>
<defs>
<clipPath id="clip0_306_956">
<rect width="27" height="29" fill="white"/>
</clipPath>
</defs>
</svg>
